<svg xmlns="http://www.w3.org/2000/svg" width="172" height="65" viewBox="0 0 172 65" fill="none">
<g clip-path="url(#clip0_2738_5649)">
<path d="M14.35 2.37012H9.04004V7.68012H14.35V2.37012Z" fill="#76BC21"/>
<path d="M5.24994 11.5801H-0.0600586V16.8901H5.24994V11.5801Z" fill="#76BC21"/>
<path d="M5.24994 2.37012H-0.0600586V7.68012H5.24994V2.37012Z" fill="#76BC21"/>
<path d="M149.1 56.9001C148.78 56.5801 148.34 57.1101 148.64 57.4101C148.94 57.7101 149.41 57.2001 149.1 56.9001Z" fill="#4A4F54"/>
<path d="M54.0001 11.5801V16.6701H39.7501V20.2501H50.34V25.0501H39.7501V28.5401H54.5501V33.6701H34.4301V11.5801H54.0001Z" fill="#4A4F54"/>
<path d="M76.09 19.8901C75.3792 18.6758 74.3535 17.6761 73.1213 16.9967C71.8891 16.3172 70.4963 15.9833 69.09 16.0301C68.2024 15.9955 67.3168 16.1405 66.4865 16.4564C65.6562 16.7722 64.8982 17.2524 64.258 17.8682C63.6177 18.4841 63.1084 19.2228 62.7604 20.0402C62.4125 20.8575 62.2332 21.7367 62.2332 22.6251C62.2332 23.5134 62.4125 24.3926 62.7604 25.21C63.1084 26.0274 63.6177 26.7661 64.258 27.3819C64.8982 27.9978 65.6562 28.478 66.4865 28.7938C67.3168 29.1097 68.2024 29.2547 69.09 29.2201C70.4764 29.3076 71.8605 29.016 73.0938 28.3765C74.327 27.737 75.3628 26.7737 76.09 25.5901L80.38 28.0001C78.14 32.1901 73.87 34.2701 69.03 34.2701C62.29 34.2701 57.03 29.8401 57.03 22.6801C57.03 15.5201 62.54 11.1001 69.03 11.1001C74.03 11.1001 78.11 13.2101 80.38 17.3701L76.09 19.8901Z" fill="#4A4F54"/>
<path d="M153.69 19.8901C152.979 18.6758 151.953 17.6761 150.721 16.9967C149.489 16.3172 148.096 15.9833 146.69 16.0301C145.802 15.9955 144.917 16.1405 144.087 16.4564C143.256 16.7722 142.498 17.2524 141.858 17.8682C141.218 18.4841 140.708 19.2228 140.36 20.0402C140.013 20.8575 139.833 21.7367 139.833 22.6251C139.833 23.5134 140.013 24.3926 140.36 25.21C140.708 26.0274 141.218 26.7661 141.858 27.3819C142.498 27.9978 143.256 28.478 144.087 28.7938C144.917 29.1097 145.802 29.2547 146.69 29.2201C148.077 29.3087 149.461 29.0176 150.695 28.378C151.928 27.7383 152.964 26.7745 153.69 25.5901L158 28.0001C155.76 32.1901 151.49 34.2701 146.65 34.2701C139.91 34.2701 134.65 29.8401 134.65 22.6801C134.65 15.5201 140.16 11.1001 146.65 11.1001C151.65 11.1001 155.73 13.2101 158 17.3701L153.69 19.8901Z" fill="#4A4F54"/>
<path d="M17.1 11.5801H8.90002V19.7801H17.1V11.5801Z" fill="#4A4F54"/>
<path d="M21.3 11.5801H20.92V16.7101H21.72C22.1816 16.6655 22.6473 16.7202 23.0859 16.8705C23.5246 17.0208 23.926 17.2632 24.2632 17.5815C24.6004 17.8998 24.8656 18.2865 25.041 18.7157C25.2164 19.145 25.2979 19.6067 25.28 20.0701C25.3048 20.5428 25.2295 21.0153 25.059 21.4569C24.8885 21.8984 24.6266 22.299 24.2905 22.6322C23.9543 22.9655 23.5516 23.224 23.1087 23.3908C22.6657 23.5576 22.1925 23.6289 21.72 23.6001H8.90002V33.6701H14.22V28.7401H21.3C26.61 28.7401 30.53 25.3401 30.53 20.1101C30.53 14.8801 26.61 11.5801 21.3 11.5801Z" fill="#4A4F54"/>
<path d="M100.54 28.4901L106.3 11.58H100.89L97.73 21.4501H91.52C91.2486 21.449 90.9847 21.361 90.767 21.1991C90.5492 21.0371 90.3891 20.8097 90.31 20.55L87.61 11.55H82.27L85.51 21.72C86.59 24.92 88.63 26.1 92.15 26.1H96.31L96 27.19C95.8332 27.7184 95.5013 28.1793 95.0531 28.5051C94.6049 28.8309 94.0641 29.0044 93.51 29H86.76L85.22 33.7201H93.31C94.9116 33.7174 96.4717 33.2108 97.7693 32.2722C99.0669 31.3335 100.036 30.0103 100.54 28.4901Z" fill="#4A4F54"/>
<path d="M24.27 3.41989H22V7.67989H20.92V2.38989H24.27V3.41989Z" fill="#4A4F54"/>
<path d="M30.31 4.16994C30.3271 4.419 30.2897 4.66879 30.2006 4.90198C30.1115 5.13517 29.9726 5.34615 29.7937 5.52028C29.6148 5.69441 29.4002 5.82751 29.1647 5.91035C28.9292 5.99318 28.6785 6.02375 28.43 5.99994H27.29V7.70994H26.21V2.38994H28.43C28.6747 2.36353 28.9223 2.3906 29.1556 2.46928C29.3889 2.54797 29.6024 2.67639 29.7811 2.84566C29.9599 3.01494 30.0998 3.22102 30.1911 3.44967C30.2824 3.67832 30.323 3.92408 30.31 4.16994ZM29.22 4.16994C29.22 3.69994 28.95 3.40994 28.39 3.40994H27.29V4.93994H28.39C29 4.93994 29.22 4.63994 29.22 4.17994V4.16994Z" fill="#4A4F54"/>
<path d="M33.92 7.67989H32.71L33.71 5.84989L31.85 2.38989H33.05L34.27 4.67989L35.46 2.38989H36.66L33.92 7.67989Z" fill="#4A4F54"/>
<path d="M43.11 7.67989H42V3.41989H39.68V7.67989H38.6V2.38989H43.11V7.67989Z" fill="#4A4F54"/>
<path d="M49.93 7.67989H48.85V3.41989H46.5V7.67989H45.42V2.38989H49.93V7.67989Z" fill="#4A4F54"/>
<path d="M55.61 6.42989H53.47L53 7.67989H51.88L53.88 2.38989H55.24L57.24 7.67989H56.05L55.61 6.42989ZM55.23 5.42989L54.54 3.50989L53.84 5.42989H55.23Z" fill="#4A4F54"/>
<path d="M66 6.42989H63.81L63.35 7.67989H62.21L64.21 2.38989H65.58L67.58 7.67989H66.43L66 6.42989ZM65.62 5.42989L64.92 3.50989L64.23 5.42989H65.62Z" fill="#4A4F54"/>
<path d="M72.83 3.41989H70.57V7.67989H69.49V2.38989H72.83V3.41989Z" fill="#4A4F54"/>
<path d="M78.88 4.17C78.8971 4.41906 78.8598 4.66886 78.7707 4.90204C78.6815 5.13523 78.5427 5.34621 78.3638 5.52034C78.1849 5.69448 77.9703 5.82758 77.7348 5.91041C77.4993 5.99324 77.2485 6.02381 77 6H75.86V7.71H74.78V2.39H77C77.2445 2.36532 77.4914 2.39359 77.7239 2.47291C77.9564 2.55222 78.1691 2.68071 78.3475 2.84962C78.5259 3.01854 78.6658 3.22391 78.7577 3.45176C78.8496 3.67961 78.8913 3.92458 78.88 4.17ZM77.78 4.17C77.78 3.7 77.51 3.41 76.95 3.41H75.86V4.94H77C77.51 4.94 77.78 4.64 77.78 4.18V4.17Z" fill="#4A4F54"/>
<path d="M86.22 4.99995C86.224 5.54666 86.0655 6.08223 85.7646 6.53874C85.4638 6.99524 85.0341 7.35211 84.5301 7.56407C84.0262 7.77604 83.4706 7.83356 82.9339 7.72933C82.3972 7.62511 81.9036 7.36383 81.5156 6.97865C81.1276 6.59346 80.8627 6.10172 80.7546 5.5658C80.6465 5.02987 80.6999 4.47391 80.9082 3.96842C81.1165 3.46293 81.4703 3.03069 81.9246 2.72652C82.3789 2.42235 82.9133 2.25997 83.46 2.25995C83.823 2.25184 84.1839 2.31702 84.5211 2.45159C84.8583 2.58617 85.1649 2.78737 85.4225 3.04316C85.6802 3.29895 85.8836 3.60408 86.0206 3.9403C86.1577 4.27652 86.2255 4.63692 86.22 4.99995ZM81.8 4.99995C81.8 5.21794 81.8429 5.4338 81.9264 5.63521C82.0098 5.83661 82.1321 6.0196 82.2862 6.17375C82.4404 6.32789 82.6233 6.45017 82.8247 6.53359C83.0261 6.61701 83.242 6.65995 83.46 6.65995C83.678 6.65995 83.8939 6.61701 84.0953 6.53359C84.2967 6.45017 84.4797 6.32789 84.6338 6.17375C84.7879 6.0196 84.9102 5.83661 84.9936 5.63521C85.0771 5.4338 85.12 5.21794 85.12 4.99995C85.12 4.78196 85.0771 4.5661 84.9936 4.3647C84.9102 4.1633 84.7879 3.9803 84.6338 3.82615C84.4797 3.67201 84.2967 3.54973 84.0953 3.46631C83.8939 3.38289 83.678 3.33995 83.46 3.33995C83.242 3.33995 83.0261 3.38289 82.8247 3.46631C82.6233 3.54973 82.4404 3.67201 82.2862 3.82615C82.1321 3.9803 82.0098 4.1633 81.9264 4.3647C81.8429 4.5661 81.8 4.78196 81.8 4.99995Z" fill="#4A4F54"/>
<path d="M92.8 7.67989H91.72V3.41989H89.37V7.67989H88.29V2.38989H92.8V7.67989Z" fill="#4A4F54"/>
<path d="M99.21 4.17C99.2226 4.41662 99.1819 4.66307 99.0907 4.89257C98.9996 5.12207 98.8601 5.32926 98.6817 5.50004C98.5033 5.67082 98.2903 5.80119 98.0571 5.88228C97.8238 5.96338 97.5758 5.99329 97.33 5.97H96.19V7.68H95.11V2.39H97.33C97.5744 2.36532 97.8213 2.39359 98.0538 2.47291C98.2864 2.55222 98.4991 2.68071 98.6775 2.84962C98.8559 3.01854 98.9958 3.22391 99.0877 3.45176C99.1796 3.67961 99.2213 3.92458 99.21 4.17ZM98.12 4.17C98.12 3.7 97.85 3.41 97.29 3.41H96.19V4.94H97.29C97.85 4.94 98.12 4.64 98.12 4.18V4.17Z" fill="#4A4F54"/>
<path d="M102.37 3.41989V4.47989H104.63V5.47989H102.37V6.61989H104.84V7.61989H101.29V2.38989H104.84V3.38989L102.37 3.41989Z" fill="#4A4F54"/>
<path d="M112.39 6.64989V8.72989H111.31V7.67989H107.73V8.72989H106.65V6.64989H107.4C107.551 6.44642 107.638 6.20282 107.65 5.94989L108.22 2.38989H111.63V6.64989H112.39ZM108.57 6.64989H110.57V3.41989H109.15L108.73 6.04989C108.692 6.25361 108.638 6.45417 108.57 6.64989Z" fill="#4A4F54"/>
<path d="M118.84 7.67989H117.76V3.41989H115.41V7.67989H114.33V2.38989H118.84V7.67989Z" fill="#4A4F54"/>
<path d="M125.25 4.16994C125.263 4.41656 125.222 4.663 125.131 4.89251C125.04 5.12201 124.9 5.3292 124.722 5.49998C124.543 5.67076 124.33 5.80112 124.097 5.88222C123.864 5.96331 123.616 5.99323 123.37 5.96994H122.23V7.67994H121.15V2.38994H123.37C123.615 2.36353 123.862 2.3906 124.096 2.46928C124.329 2.54797 124.542 2.67639 124.721 2.84566C124.9 3.01494 125.04 3.22102 125.131 3.44967C125.222 3.67832 125.263 3.92408 125.25 4.16994ZM124.16 4.16994C124.16 3.69994 123.89 3.40994 123.33 3.40994H122.23V4.93994H123.33C123.89 4.93994 124.16 4.63994 124.16 4.17994V4.16994Z" fill="#4A4F54"/>
<path d="M131.81 2.38989V7.67989H130.73V5.46989L130.83 3.97989L128.53 7.67989H127.29V2.38989H128.37V4.59989L128.27 6.08989L130.58 2.38989H131.81Z" fill="#4A4F54"/>
<path d="M138.1 2.38989V7.67989H137V5.85989H136.32L135.03 7.67989H133.7L135.12 5.74989C134.775 5.64782 134.475 5.43017 134.271 5.13341C134.067 4.83665 133.971 4.47882 134 4.11989C133.984 3.88251 134.02 3.6445 134.106 3.4226C134.192 3.2007 134.325 3.00028 134.497 2.83541C134.668 2.67054 134.874 2.54522 135.099 2.46826C135.324 2.39129 135.563 2.36454 135.8 2.38989H138.1ZM137 4.87989V3.41989H135.92C135.36 3.41989 135.09 3.70989 135.09 4.14989C135.09 4.58989 135.36 4.87989 135.92 4.87989H137Z" fill="#4A4F54"/>
<path d="M144.16 3.41992H142.63V7.67992H141.55V3.41992H140V2.41992H144.12L144.16 3.41992Z" fill="#4A4F54"/>
<path d="M150.59 2.38989V7.67989H149.51V5.46989L149.61 3.97989L147.31 7.67989H146.07V2.38989H147.15V4.59989L147.05 6.08989L149.35 2.38989H150.59Z" fill="#4A4F54"/>
<path d="M157.35 2.38993V7.67993H156.27V5.46993L156.37 3.97993L154.07 7.67993H152.83V2.38993H153.91V4.59993L153.81 6.08993L156.11 2.38993H157.35ZM153.82 0.629932V0.429932H154.67V0.599932C154.661 0.659829 154.664 0.721035 154.681 0.779346C154.698 0.837657 154.727 0.891689 154.766 0.937733C154.805 0.983776 154.854 1.02074 154.909 1.04608C154.964 1.07142 155.024 1.08455 155.085 1.08455C155.146 1.08455 155.205 1.07142 155.261 1.04608C155.316 1.02074 155.365 0.983776 155.404 0.937733C155.443 0.891689 155.472 0.837657 155.489 0.779346C155.506 0.721035 155.509 0.659829 155.5 0.599932V0.429932H156.35V0.629932C156.322 0.946018 156.176 1.24012 155.942 1.45433C155.708 1.66855 155.402 1.78735 155.085 1.78735C154.768 1.78735 154.462 1.66855 154.228 1.45433C153.994 1.24012 153.848 0.946018 153.82 0.629932Z" fill="#4A4F54"/>
<path d="M122.2 11.5801H109.8V33.6701H115.12V28.7401H122.2C127.51 28.7401 131.43 25.3401 131.43 20.1101C131.43 14.8801 127.51 11.5801 122.2 11.5801ZM122.62 23.5801H115.12V16.7101H122.62C123.082 16.6655 123.547 16.7202 123.986 16.8705C124.425 17.0208 124.826 17.2632 125.163 17.5815C125.5 17.8998 125.766 18.2865 125.941 18.7157C126.116 19.145 126.198 19.6067 126.18 20.0701C126.205 20.5428 126.13 21.0153 125.959 21.4569C125.788 21.8984 125.527 22.299 125.19 22.6322C124.854 22.9655 124.452 23.224 124.009 23.3908C123.566 23.5576 123.092 23.6289 122.62 23.6001V23.5801Z" fill="#4A4F54"/>
</g>
<defs>
<clipPath id="clip0_2738_5649">
<rect width="172" height="65" fill="white"/>
</clipPath>
</defs>
</svg>